HIERARCHY
ROOT base
{
	OFFSET 0.0 0.0 0.0
	CHANNELS 6 Xposition Yposition Zposition Zrotation Yrotation Xrotation
	JOINT root
	{
		OFFSET 0 0 0
		CHANNELS 6 Xposition Yposition Zposition Zrotation Yrotation Xrotation
		JOINT chest
		{
			OFFSET 0 4.72302 0
			CHANNELS 3 Zrotation Yrotation Xrotation
			JOINT neck
			{
				OFFSET 0 4.47788 0
				CHANNELS 3 Zrotation Yrotation Xrotation
				End Site
				{
					OFFSET 0.0 0.0 0.0
				}
			}
			JOINT right_shoulder
			{
				OFFSET -0.481 4.87 3.6622
				CHANNELS 3 Zrotation Yrotation Xrotation
				JOINT right_elbow
				{
					OFFSET 0 -5.49576 0
					CHANNELS 3 Zrotation Yrotation Xrotation
					JOINT right_wrist
					{
						OFFSET 0 -5.17894 0
						CHANNELS 3 Zrotation Yrotation Xrotation
						End Site
						{
							OFFSET 0.0 0.0 0.0
						}
					}
				}
			}
			JOINT left_shoulder
			{
				OFFSET -0.481 4.87 -3.6622
				CHANNELS 3 Zrotation Yrotation Xrotation
				JOINT left_elbow
				{
					OFFSET 0 -5.49576 0
					CHANNELS 3 Zrotation Yrotation Xrotation
					JOINT left_wrist
					{
						OFFSET 0 -5.17894 0
						CHANNELS 3 Zrotation Yrotation Xrotation
						End Site
						{
							OFFSET 0.0 0.0 0.0
						}
					}
				}
			}
		}
		JOINT right_hip
		{
			OFFSET 0 0 1.69774
			CHANNELS 3 Zrotation Yrotation Xrotation
			JOINT right_knee
			{
				OFFSET 0 -8.43092 0
				CHANNELS 3 Zrotation Yrotation Xrotation
				JOINT right_ankle
				{
					OFFSET 0 -8.1974 0
					CHANNELS 3 Zrotation Yrotation Xrotation
					End Site
					{
						OFFSET 0.0 0.0 0.0
					}
				}
			}
		}
		JOINT left_hip
		{
			OFFSET 0 0 -1.69774
			CHANNELS 3 Zrotation Yrotation Xrotation
			JOINT left_knee
			{
				OFFSET 0 -8.43092 0
				CHANNELS 3 Zrotation Yrotation Xrotation
				JOINT left_ankle
				{
					OFFSET 0 -8.1974 0
					CHANNELS 3 Zrotation Yrotation Xrotation
					End Site
					{
						OFFSET 0.0 0.0 0.0
					}
				}
			}
		}
	}
	JOINT red_arrow
	{
		OFFSET 0 0 0
		CHANNELS 3 Zrotation Yrotation Xrotation
		End Site
		{
			OFFSET 0.0 0.0 0.0
		}
	}
	JOINT blue_arrow
	{
		OFFSET 0 0 0
		CHANNELS 3 Zrotation Yrotation Xrotation
		End Site
		{
			OFFSET 0.0 0.0 0.0
		}
	}
}
MOTION
Frames: 12
Frame Time: 0.0333333333333333
121.997566384077 0 -13.7612310931087 0 1.42810929978006 0 0 15.7146507263184 0 -22.3780717471486 2.79626078615172 -4.53412124638047 -7.63739817865307 -0.141165818101129 -1.75942712693702 -4.18262958711333 0.100986197250223 -5.69271662944888 28.642270796462 10.8504392820368 -25.1346286073158 82.4263950546337 0 0 0 0 0 -37.626492524161 3.13158521540158 24.261562354959 70.9908142329565 0 0 0 0 0 -0.637028720365839 -1.22596745487244 -0.123235527735948 -68.3909232159586 0 0 -18.8578151517505 -3.53258590567874 -1.84487039980984 61.1725377222449 -7.8056972216164 -5.15628563307611 -48.9884185010817 0 0 10.9661786181709 20.7122346974124 2.3505584081663 0 0 0 0 0 0
123.831335246563 0 -14.0560370385647 0 1.65971052630417 0 0 15.7607735395432 0 -23.4496753761693 4.0382483263179 -4.7983932390396 -9.63194892606467 0.902820155789909 -2.00042616247952 -4.95458020001812 0.527821501648876 -5.7257324513259 15.6984818059476 7.81536590018219 -18.9064957998447 72.688450920974 0 0 0 0 0 -25.9722545634332 -0.0317633001621951 16.9432642379833 71.6873500943252 0 0 0 0 0 2.62938382814325 -1.72104074075121 -0.737912894761802 -82.2070708501954 0 0 -14.7709725922329 -2.53517098246871 -1.8981039895138 57.4759798362775 -6.87293020536291 -6.16618150192963 -53.3739873444986 0 0 20.5322927376036 18.9866681581689 4.2737851518605 0 0 0 0 0 0
125.609725117683 0 -14.3874898552895 0 1.98422084297256 0 0 15.8342695116997 0 -25.3315195424908 5.57678160103716 -4.65408334758602 -9.51994886335347 1.16766003740178 -1.80867666960713 -4.16949404939306 0.435922385726635 -4.15101980462141 2.88153447795896 10.0269479790536 -16.3638788337375 64.4383200640289 0 0 0 0 0 -8.74626600468348 -4.03196416080816 11.8498359205459 72.9212374282663 0 0 0 0 0 10.3390963961817 -2.12077338291752 -3.47317157994486 -94.5712637008601 0 0 -8.21452195350674 -1.90148804846827 0.628099879558378 52.3382083980146 -4.99736070481823 -6.76094529587214 -53.4543684257458 0 0 27.6995140286635 15.6116748128765 5.7711373768477 0 0 0 0 0 0
127.228782719374 0 -14.7498359173536 0 2.34984060159274 0 0 16.0424507021904 0 -29.321086509376 6.06392912386638 -4.16623334030938 -6.81628685098226 0.63085650687509 -1.50126519527632 -1.66218300286171 2.01410516793459 -2.60509609989688 -13.173245451514 18.8083543401152 -20.9787950255801 56.3148653105255 0 0 0 0 0 11.931117844581 -11.4544439650513 13.3417329626656 74.2789424314815 0 0 0 0 0 27.0325682464384 -0.221820894684657 -8.43236895379524 -105.569514340171 0 0 1.16077981660734 -1.92870444853926 9.61676240074383 47.1994092820811 -2.68141516334579 -6.84372766704136 -48.0991005503894 0 0 31.2823794631403 12.0879655814875 6.48652020594296 0 0 0 0 0 0
128.903452193737 0 -15.0465403556824 0 2.62993604334354 0 0 16.4470836877823 0 -32.3995915731812 4.49708501448964 -4.14233417514707 -5.96276223708475 -0.215837852124186 -0.971235610528794 0.964123600702885 5.63466889289423 -0.696911526222955 -34.6702927916758 26.8001154232281 -33.691643013162 51.6391329556937 0 0 0 0 0 29.9939872939646 -25.6108918795585 25.664483212224 77.3164368384129 0 0 0 0 0 48.9826952210721 3.37147681857154 -8.61842162510605 -109.974706317073 0 0 10.5127289689665 -2.13668555586391 22.4206866896184 37.8418244131408 -1.26440396812501 -5.40738034085044 -35.3261481986561 0 0 30.8678358237825 10.2218990068425 6.4588008972053 0 0 0 0 0 0
130.821970331669 0 -15.2470845267177 0 2.77349611301582 0 0 16.768306851387 0 -33.6250592484163 2.27177612477111 -5.20062525725728 -6.02823050053744 -1.01549012665352 -0.480012444598183 2.7661095539152 8.5134225168432 1.99469049898229 -51.0691947028938 23.2999342238054 -42.6746356535237 53.2640178837668 0 0 0 0 0 40.0476606442543 -40.5220408181479 44.061355602286 85.5236877677486 0 0 0 0 0 66.3801109511811 0.519037007260451 -4.54229539015573 -102.982054267462 0 0 15.3649572480316 -4.56517129309071 27.5667474663179 24.8829351022212 -0.686239215822826 -2.85838510179789 -19.2591544121239 0 0 24.7977488814544 10.1894109409386 5.3539351659708 0 0 0 0 0 0
132.929934465885 0 -15.5496315822005 0 2.86358461681945 0 0 16.9621217370033 0 -32.9614947292602 1.4362896154401 -5.34730880511552 -7.74373292910028 -3.29769748727837 0.117668371592363 2.95987747623798 8.22969747982716 3.1935534473103 -56.1418743807068 14.8524394395886 -44.4914860460475 58.6036377957347 0 0 0 0 0 41.2058756616997 -48.7320250095303 59.7746264004784 94.5258156221228 0 0 0 0 0 74.989513271824 -5.88234626447958 -3.91547433686657 -86.4712262509261 0 0 16.6540823025809 -5.7985240361236 27.431054544154 13.4241853187397 0.377144888807119 -1.76542944469852 -10.3748848869728 0 0 9.74624487921347 6.9646010705342 2.98802738211983 0 0 0 0 0 0
135.218979364634 0 -15.9730890706182 0 3.00105762840908 0 0 16.9171462774277 0 -30.0338794803014 2.26166703207166 -4.43972052671292 -10.9717407535401 -6.87516449415409 1.52388057520186 3.2447613336933 7.39133685456087 4.73550443201907 -58.4459725232804 5.00848957901396 -45.4709924497281 63.8160966608299 0 0 0 0 0 38.6696513423304 -49.290678800109 68.8304529107159 101.397518681911 0 0 0 0 0 77.276495599935 -10.8789234647766 -5.75380727142325 -69.231227729167 0 0 15.5448948425092 -4.99843285312021 23.4699302794737 2.49545966214925 2.22523463336169 -2.0526001270945 -7.845656445807 0 0 -13.3190320578345 2.64389795778409 0.360575797963792 0 0 0 0 0 0
137.625405687094 0 -16.3791398406029 0 3.22297192680878 0 0 16.6618000507355 0 -26.0927082463465 3.78797575577932 -3.29624464196451 -14.238606209885 -10.082326338824 3.04808054402662 4.63719715531334 6.34951545479049 7.21093052702581 -57.0339992806902 -4.29407324559063 -44.1720183939999 67.1630532786763 0 0 0 0 0 34.5061074386374 -44.6513052132764 69.9223247039977 104.250160849145 0 0 0 0 0 75.2706629575772 -14.2027149206822 -7.39766882336225 -53.5586244332369 0 0 12.7973489380642 -3.71454844216793 18.0137507026885 -7.2056735490746 4.74205795775555 -1.69811787602141 -8.97815645170847 0 0 -27.2169960227745 2.00493208268878 -4.63234643892565 0 0 0 0 0 0
140.124865025282 0 -16.7543468773365 0 3.48451359598685 0 0 16.2389617204666 0 -21.4379216625151 4.62703478187253 -2.02755690780326 -17.2643793192619 -11.8166654263455 4.06129632156866 6.78732628008464 5.23389679134785 9.86151878614043 -52.4087617663287 -10.1815774478334 -39.997491386753 69.8500565283484 0 0 0 0 0 30.4852072938341 -37.4709777988877 63.6882314059294 103.493211964568 0 0 0 0 0 70.9787531531785 -15.7211120738807 -7.70746548162896 -44.8618777517485 0 0 9.44514586708698 -2.30629557947588 13.0629968741322 -13.6186501714434 6.34983632496509 -1.00277022914224 -17.2095051422096 0 0 -29.9740870558018 1.68329861561812 -7.44727342662035 0 0 0 0 0 0
142.608183580637 0 -17.0984532132745 0 3.74648893764861 0 0 15.6688138961792 0 -17.1244576972539 4.75790100672782 -1.22300109280262 -19.7687392250538 -12.1586725647323 5.21814587539582 9.31678873956076 3.91901670153597 11.7521085411049 -47.1176827461894 -12.7358847153167 -34.8193693844945 71.0034295923535 0 0 0 0 0 27.1701659098496 -31.0129997328715 55.3667609194321 100.115949797374 0 0 0 0 0 66.5302037899555 -15.8831302149789 -7.00207580093498 -44.4914629326804 0 0 5.40898623555059 -0.63127846965597 8.80535688980487 -14.5419380239365 5.35525076593644 -0.330574154437547 -33.9740507807496 0 0 -27.9136466146284 1.37416211588463 -8.47915816949455 0 0 0 0 0 0
144.955814641714 0 -17.3750476516783 0 4.00910039350155 0 0 14.9983038663864 0 -14.430625418223 4.83295339781165 -0.900797497789617 -21.3698363009115 -11.5943585349125 6.13385240145644 11.3210704414565 2.31036230635491 11.9805967200162 -39.1529095531593 -10.4873432997801 -27.7848666867837 68.9396059723641 0 0 0 0 0 24.9794862918898 -24.62717901574 45.8070993760473 94.8130387371002 0 0 0 0 0 62.8487363933864 -15.5041823388778 -5.85596758770171 -48.1566312337684 0 0 1.25375053406766 0.892171516932665 1.7209643268306 -9.98531213806866 3.34477426958911 0.240042663408255 -53.5452201869908 0 0 -24.4843088432391 0.987774757675527 -8.15996845631555 0 0 0 0 0 0
